<svg width="384" height="154" viewBox="0 0 384 154" fill="none" xmlns="http://www.w3.org/2000/svg">
<path d="M57.8212 8.20749L104.474 62.3823C106.382 60.9668 106.692 58.3835 105.167 56.613L57.5161 1.27786C55.9713 -0.515951 52.9951 -0.403069 51.6132 1.50226L32.9273 27.271V14.5768H18.074V47.7548L0.867328 71.4841C-0.496175 73.3648 0.0403819 75.9152 2.06574 77.1809L51.9191 8.43189C53.3003 6.52656 56.2771 6.41368 57.8219 8.20749H57.8212ZM28.5059 33.3694L22.4969 41.6564V18.6816H28.5059V33.3694V33.3694Z" fill="white"/>
<path d="M55.6896 95.4788C43.1749 95.4788 33.0039 105.111 33.0039 116.94V153.781H38.1631V116.94C38.1631 107.752 46.0198 100.268 55.6896 100.268C65.3595 100.268 73.2162 107.752 73.2162 116.94V153.781H78.3754V116.94C78.3754 105.111 68.197 95.4788 55.6896 95.4788Z" fill="white"/>
<path d="M69.0744 70.5555V66.1976C64.5343 64.7677 59.6478 63.9946 54.555 63.9946C30.6679 63.9946 11.2324 81.0707 11.2324 102.067V149.676C11.2324 151.943 13.2121 153.781 15.6546 153.781V102.067C15.6546 83.3352 33.1074 68.0995 54.555 68.0995C59.6847 68.0995 64.5859 68.9683 69.0744 70.5555Z" fill="white"/>
<path d="M93.4551 153.781C95.8976 153.781 97.8772 151.943 97.8772 149.676V108.696C96.3737 108.696 94.8997 108.587 93.4551 108.382V153.781V153.781Z" fill="white"/>
<path d="M120.894 59.3767C120.319 59.1578 119.722 59.0483 119.125 59.0483C117.938 59.0483 116.766 59.4793 115.889 60.3003L107.274 68.2979C104.178 66.7928 100.994 66.0334 97.7364 66.0334C94.4419 66.0334 91.081 66.8065 87.6539 68.3458L79.8635 61.1144C78.979 60.2935 77.8072 59.8625 76.6205 59.8625C76.0235 59.8625 75.4266 59.9719 74.859 60.1909C73.1344 60.8545 72.0215 62.4006 72.0215 64.1246V81.9601C72.0215 93.7889 81.3007 103.654 93.4543 105.604C94.8915 105.837 96.3655 105.96 97.8764 105.96C112.131 105.96 123.731 95.1913 123.731 81.9601V63.3174C123.731 61.5865 122.618 60.0403 120.894 59.3767ZM119.309 81.9601C119.309 92.9269 109.691 101.855 97.8764 101.855C96.3582 101.855 94.8767 101.704 93.4469 101.424C83.7476 99.5288 76.4437 91.5175 76.4437 81.9601V64.1246C76.4437 64.0768 76.4437 64.022 76.5468 63.981C76.5837 63.9673 76.6058 63.9673 76.6279 63.9673C76.6795 63.9673 76.709 63.9947 76.7385 64.0152L86.8505 73.4016L88.3024 72.6558C91.5675 70.9865 94.6925 70.1451 97.7217 70.1451C100.721 70.1451 103.625 70.966 106.478 72.608L107.966 73.4631L119.022 63.2011C119.044 63.1737 119.073 63.1463 119.125 63.1463C119.147 63.1463 119.169 63.1532 119.206 63.1669C119.309 63.2079 119.309 63.2626 119.309 63.3174V81.9601V81.9601Z" fill="white"/>
<path d="M188.159 95.6327C187.586 97.1501 186.677 98.4773 185.431 99.6151C184.185 100.753 182.59 101.626 180.652 102.232C178.71 102.839 176.393 103.142 173.695 103.142C170.345 103.142 167.403 102.659 164.869 101.691C162.335 100.724 160.375 99.3113 158.986 97.4532C157.597 95.5958 156.904 93.3005 156.904 90.5694C156.904 87.8014 157.597 85.478 158.986 83.6001C160.376 81.7221 162.336 80.3005 164.869 79.3331C167.403 78.3657 170.345 77.8827 173.695 77.8827C176.393 77.8827 178.72 78.1865 180.682 78.7926C182.643 79.4002 184.247 80.2813 185.493 81.4382C186.739 82.5958 187.627 83.9702 188.159 85.5629H196.249C195.923 82.5677 194.819 80.0166 192.94 77.9115C191.06 75.8064 188.496 74.185 185.248 73.0473C181.999 71.9095 178.148 71.3403 173.695 71.3403C169.976 71.3403 166.575 71.7481 163.49 72.5636C160.404 73.3797 157.749 74.5927 155.523 76.2046C153.295 77.8171 151.57 79.8168 150.344 82.2058C149.119 84.5955 148.506 87.3827 148.506 90.5687C148.506 93.7547 149.119 96.533 150.344 98.9029C151.57 101.273 153.295 103.255 155.523 104.848C157.749 106.441 160.404 107.635 163.49 108.432C166.575 109.229 169.976 109.627 173.695 109.627C178.148 109.627 181.989 109.077 185.217 107.977C188.444 106.877 190.999 105.284 192.878 103.198C194.758 101.113 195.882 98.5895 196.249 95.6313H188.159V95.6327Z" fill="white"/>
<path d="M240.251 80.6138H232.283V89.106C232.093 88.4759 231.869 87.8629 231.61 87.2698C230.63 85.0326 229.066 83.2593 226.922 81.9506C224.777 80.6418 221.947 79.9878 218.432 79.9878C215.246 79.9878 212.395 80.6042 209.883 81.8363C207.37 83.0692 205.377 84.7863 203.908 86.9852C202.437 89.1853 201.701 91.7837 201.701 94.7788C201.701 97.7001 202.426 100.268 203.876 102.488C205.327 104.706 207.288 106.432 209.761 107.665C212.233 108.897 214.979 109.513 218.004 109.513C220.7 109.513 223.009 109.067 224.929 108.176C226.849 107.286 228.401 106.11 229.587 104.65C230.771 103.19 231.65 101.597 232.222 99.8709C232.245 99.8011 232.261 99.7327 232.283 99.6629V101.606C232.283 102.707 232.323 103.825 232.405 104.962C232.487 106.1 232.63 107.409 232.834 108.888H240.25V80.6138H240.251ZM230.874 99.5008C229.935 100.866 228.586 101.928 226.829 102.687C225.072 103.446 222.989 103.825 220.578 103.825C218.453 103.825 216.583 103.446 214.971 102.687C213.357 101.929 212.1 100.877 211.201 99.5295C210.302 98.1838 209.854 96.6 209.854 94.7795C209.854 92.0491 210.792 89.8585 212.673 88.2091C214.551 86.5596 217.187 85.7346 220.579 85.7346C222.99 85.7346 225.063 86.0855 226.8 86.7874C228.536 87.4894 229.884 88.5135 230.845 89.8592C231.804 91.2056 232.284 92.8462 232.284 94.7802C232.284 96.5631 231.813 98.1366 230.875 99.5021L230.874 99.5008Z" fill="white"/>
<path d="M253.185 108.888H261.153V86.3592H268.996V80.6138H261.153V72.8762H253.185V80.6138H245.34V86.3592H253.185V108.888Z" fill="white"/>
<path d="M149.499 150.777C148.825 150.777 148.667 150.409 148.667 149.821C148.667 149.268 148.943 148.459 149.142 147.833L154.415 133.629H158.379L158.696 132.673H154.732L156.515 128.183H155.604C154.018 131.347 152.79 132.857 149.38 132.93L149.063 133.629H152.196L146.923 147.906C146.645 148.679 146.367 149.6 146.367 150.299C146.367 151.476 146.923 152.249 148.429 152.249C151.52 152.249 154.574 148.532 156.199 144.89H155.327C153.742 148.018 151.362 150.778 149.5 150.778L149.499 150.777Z" fill="white"/>
<path d="M168.566 132.157C163.295 132.157 157.586 139.921 157.586 146.912C157.586 150.334 159.252 152.506 162.184 152.506C167.497 152.506 173.245 144.852 173.245 137.897C173.245 134.475 171.5 132.156 168.566 132.156V132.157ZM162.818 151.255C160.718 151.255 159.885 149.526 159.885 146.987C159.885 140.804 164.286 133.408 167.933 133.408C170.034 133.408 170.946 135.211 170.946 137.787C170.946 144.006 166.466 151.255 162.819 151.255H162.818Z" fill="white"/>
<path d="M224.458 125.802C223.274 124.891 221.885 124.219 220.291 123.782C218.698 123.347 216.96 123.128 215.082 123.128C212.916 123.128 210.965 123.441 209.229 124.067C207.492 124.693 206.012 125.517 204.787 126.541C203.561 127.566 202.58 128.703 201.845 129.955C201.468 130.596 201.162 131.238 200.925 131.88V112.376H192.957V152.028H200.925V135.224C201.215 134.556 201.641 133.909 202.212 133.283C203.233 132.164 204.562 131.255 206.196 130.552C207.83 129.851 209.649 129.499 211.65 129.499C213.735 129.499 215.399 129.765 216.645 130.296C217.89 130.828 218.8 131.605 219.371 132.628C219.944 133.652 220.231 134.942 220.231 136.497V152.028H228.197V133.937C228.197 132.117 227.871 130.533 227.217 129.187C226.563 127.841 225.644 126.713 224.459 125.802H224.458Z" fill="white"/>
<path d="M263.467 124.835C260.587 123.697 257.225 123.128 253.384 123.128C249.544 123.128 246.162 123.697 243.241 124.835C240.319 125.972 238.042 127.651 236.408 129.869C234.773 132.088 233.957 134.79 233.957 137.976C233.957 141.162 234.773 143.846 236.408 146.026C238.042 148.207 240.32 149.867 243.241 151.004C246.162 152.142 249.544 152.711 253.384 152.711C257.225 152.711 260.586 152.142 263.467 151.004C266.348 149.867 268.605 148.207 270.239 146.026C271.873 143.846 272.691 141.162 272.691 137.976C272.691 134.79 271.873 132.089 270.239 129.869C268.604 127.651 266.347 125.972 263.467 124.835ZM263.13 142.897C262.15 144.244 260.811 145.268 259.116 145.969C257.42 146.671 255.509 147.021 253.385 147.021C251.22 147.021 249.28 146.671 247.564 145.969C245.848 145.268 244.499 144.244 243.519 142.897C242.539 141.552 242.048 139.91 242.048 137.976C242.048 136.005 242.548 134.335 243.549 132.97C244.55 131.605 245.909 130.562 247.624 129.841C249.34 129.121 251.261 128.76 253.385 128.76C255.551 128.76 257.47 129.121 259.146 129.841C260.821 130.562 262.15 131.614 263.13 132.998C264.11 134.383 264.601 136.042 264.601 137.976C264.601 139.91 264.11 141.552 263.13 142.897V142.897Z" fill="white"/>
<path d="M336.615 125.916C335.43 124.968 334.042 124.266 332.448 123.81C330.855 123.355 329.117 123.128 327.239 123.128C325.155 123.128 323.264 123.431 321.569 124.038C319.873 124.645 318.392 125.461 317.127 126.484C315.86 127.508 314.838 128.646 314.062 129.898C313.8 130.321 313.583 130.743 313.386 131.166C313.238 130.59 313.064 130.037 312.836 129.528C312.182 128.068 311.262 126.864 310.079 125.915C308.894 124.967 307.504 124.265 305.911 123.81C304.317 123.355 302.581 123.127 300.703 123.127C298.537 123.127 296.596 123.431 294.88 124.038C293.165 124.644 291.683 125.469 290.437 126.512C289.191 127.555 288.2 128.702 287.464 129.954C287.088 130.595 286.783 131.246 286.546 131.907V123.753H278.578V152.027H286.546V135.213C286.86 134.496 287.327 133.795 287.955 133.111C289.017 131.955 290.407 130.997 292.122 130.238C293.838 129.48 295.759 129.1 297.883 129.1C300.703 129.1 302.734 129.66 303.981 130.778C305.227 131.898 305.85 133.652 305.85 136.041V152.027H313.818V134.733C313.818 134.474 313.798 134.233 313.787 133.984C313.993 133.69 314.228 133.399 314.492 133.111C315.554 131.955 316.943 130.997 318.659 130.238C320.375 129.48 322.296 129.1 324.42 129.1C327.24 129.1 329.283 129.66 330.549 130.778C331.814 131.898 332.449 133.652 332.449 136.041V152.027H340.416V134.733C340.416 132.723 340.079 130.988 339.405 129.528C338.731 128.068 337.801 126.864 336.617 125.915L336.615 125.916Z" fill="white"/>
<path d="M381.629 130.211C380.342 127.841 378.371 126.067 375.715 124.891C373.058 123.716 369.729 123.128 365.725 123.128C361.802 123.128 358.38 123.716 355.46 124.891C352.537 126.067 350.258 127.764 348.625 129.983C346.992 132.201 346.174 134.866 346.174 137.976C346.174 141.085 347.012 143.741 348.687 145.94C350.362 148.14 352.691 149.818 355.674 150.975C358.655 152.131 362.087 152.71 365.97 152.71C369.443 152.71 372.384 152.274 374.796 151.402C377.206 150.529 379.117 149.335 380.526 147.818C381.935 146.301 382.803 144.575 383.13 142.641H375.408C374.917 143.93 373.825 144.983 372.129 145.798C370.433 146.614 368.319 147.021 365.787 147.021C363.498 147.021 361.528 146.68 359.872 145.997C358.218 145.314 356.909 144.386 355.95 143.209C354.989 142.034 354.408 140.726 354.204 139.284H383.254C383.457 135.606 382.916 132.58 381.629 130.21L381.629 130.211ZM354.632 134.961C355.162 133.217 356.348 131.746 358.186 130.552C360.026 129.357 362.415 128.76 365.357 128.76C368.338 128.76 370.698 129.32 372.436 130.438C374.171 131.558 375.142 133.065 375.346 134.961H354.632V134.961Z" fill="white"/>
</svg>
